<svg width="849" height="657" viewBox="0 0 849 657" fill="none" xmlns="http://www.w3.org/2000/svg">
<path d="M334.494 478V470.62L356.934 442.96L356.394 442.24H335.274V434.2H368.934V441.58L346.434 469.18L346.974 469.9H368.934V478H334.494ZM426.742 479.14C422.622 479.14 419.122 478.38 416.242 476.86C413.402 475.3 411.242 473.1 409.762 470.26C408.282 467.42 407.542 464.06 407.542 460.18V434.2H417.382V460.54C417.382 463.42 418.182 465.72 419.782 467.44C421.422 469.12 423.742 469.96 426.742 469.96C429.742 469.96 432.042 469.12 433.642 467.44C435.282 465.76 436.102 463.46 436.102 460.54V434.2H445.942V460.18C445.942 464.06 445.202 467.42 443.722 470.26C442.242 473.1 440.082 475.3 437.242 476.86C434.402 478.38 430.902 479.14 426.742 479.14ZM502.604 479.14C498.644 479.14 495.284 478.52 492.524 477.28C489.804 476.04 487.744 474.32 486.344 472.12C484.984 469.92 484.304 467.4 484.304 464.56H493.844C493.844 466.24 494.524 467.72 495.884 469C497.284 470.24 499.524 470.86 502.604 470.86C505.324 470.86 507.404 470.34 508.844 469.3C510.284 468.22 511.004 466.84 511.004 465.16C511.004 463.76 510.404 462.66 509.204 461.86C508.004 461.02 506.064 460.48 503.384 460.24L500.084 459.94C495.724 459.58 492.244 458.24 489.644 455.92C487.044 453.56 485.744 450.42 485.744 446.5C485.744 443.7 486.404 441.28 487.724 439.24C489.084 437.2 490.964 435.64 493.364 434.56C495.764 433.44 498.604 432.88 501.884 432.88C505.324 432.88 508.264 433.48 510.704 434.68C513.184 435.88 515.084 437.56 516.404 439.72C517.724 441.84 518.384 444.32 518.384 447.16H508.784C508.784 445.56 508.204 444.16 507.044 442.96C505.884 441.76 504.164 441.16 501.884 441.16C499.684 441.16 498.044 441.7 496.964 442.78C495.884 443.82 495.344 445.06 495.344 446.5C495.344 447.74 495.764 448.82 496.604 449.74C497.484 450.66 498.944 451.2 500.984 451.36L504.344 451.66C507.544 451.94 510.364 452.64 512.804 453.76C515.244 454.84 517.144 456.34 518.504 458.26C519.904 460.14 520.604 462.44 520.604 465.16C520.604 467.96 519.864 470.42 518.384 472.54C516.944 474.62 514.884 476.24 512.204 477.4C509.524 478.56 506.324 479.14 502.604 479.14ZM559.904 478V434.2H569.744V478H559.904Z" fill="#1D3557"/>
<path d="M505.377 163H257L426 288.25L505.377 288.25V163Z" fill="#1D3557"/>
<path d="M332 275L574 420H332V275Z" fill="#10B981"/>
</svg>
